<?xml version="1.0" encoding="UTF-8"?>
<!DOCTYPE svg PUBLIC "-//W3C//DTD SVG 1.1//EN" "http://www.w3.org/Graphics/SVG/1.1/DTD/svg11.dtd">
<svg xmlns="http://www.w3.org/2000/svg" version="1.1" width="612px" height="408px" style="shape-rendering:geometricPrecision; text-rendering:geometricPrecision; image-rendering:optimizeQuality; fill-rule:evenodd; clip-rule:evenodd" xmlns:xlink="http://www.w3.org/1999/xlink">
<g><path style="opacity:0.137" fill="#2f2614" d="M 296.5,110.5 C 296.5,114.833 296.5,119.167 296.5,123.5C 296.715,125.179 296.048,126.179 294.5,126.5C 294.167,126.5 293.833,126.5 293.5,126.5C 295.064,121.272 296.064,115.939 296.5,110.5 Z"/></g>
<g><path style="opacity:0.392" fill="#594c3a" d="M 316.5,110.5 C 317.326,115.316 317.826,120.316 318,125.5C 319.302,126.085 320.469,126.751 321.5,127.5C 319.856,127.714 318.356,127.38 317,126.5C 316.501,121.177 316.334,115.844 316.5,110.5 Z"/></g>
<g><path style="opacity:1" fill="#b29d73" d="M 316.5,110.5 C 316.334,115.844 316.501,121.177 317,126.5C 318.356,127.38 319.856,127.714 321.5,127.5C 324.542,127.733 327.208,128.733 329.5,130.5C 327.05,130.298 324.717,130.631 322.5,131.5C 321.176,132.85 320.176,132.683 319.5,131C 319.905,130.055 320.572,129.388 321.5,129C 319.741,128.202 318.074,128.369 316.5,129.5C 316.709,130.086 317.043,130.586 317.5,131C 313.992,133.646 311.158,136.812 309,140.5C 310.61,145.396 308.777,147.396 303.5,146.5C 303.5,147.5 303.5,148.5 303.5,149.5C 302.167,149.5 300.833,149.5 299.5,149.5C 299.784,152.777 299.451,155.943 298.5,159C 304.157,159.499 309.824,159.666 315.5,159.5C 315.185,155.629 315.518,151.962 316.5,148.5C 316.5,152.5 316.5,156.5 316.5,160.5C 309.833,161.833 303.167,161.833 296.5,160.5C 296.827,155.786 296.493,151.12 295.5,146.5C 294.893,146.624 294.56,146.957 294.5,147.5C 292.151,149.341 289.485,150.674 286.5,151.5C 285.833,151.5 285.167,151.5 284.5,151.5C 284.5,150.167 284.5,148.833 284.5,147.5C 287.961,148.111 290.628,146.944 292.5,144C 292.167,143.667 291.833,143.333 291.5,143C 297.353,136.63 301.02,129.13 302.5,120.5C 305.194,118.791 307.194,116.457 308.5,113.5C 304.895,112.461 301.228,111.795 297.5,111.5C 297.817,115.702 297.483,119.702 296.5,123.5C 296.5,119.167 296.5,114.833 296.5,110.5C 303.162,109.24 309.829,109.24 316.5,110.5 Z"/></g>
<g><path style="opacity:1" fill="#b19763" d="M 284.5,151.5 C 280.931,153.119 277.264,154.452 273.5,155.5C 275.299,152.694 277.966,151.361 281.5,151.5C 280.357,148.316 279.691,144.983 279.5,141.5C 280.5,141.5 281.5,141.5 282.5,141.5C 282.338,139.473 282.505,137.473 283,135.5C 284.067,134.809 285.234,134.309 286.5,134C 287.252,133.329 287.586,132.496 287.5,131.5C 288.922,131.291 290.255,130.791 291.5,130C 290.833,129.667 290.167,129.333 289.5,129C 291.315,128.243 292.981,127.41 294.5,126.5C 296.048,126.179 296.715,125.179 296.5,123.5C 297.483,119.702 297.817,115.702 297.5,111.5C 301.228,111.795 304.895,112.461 308.5,113.5C 307.194,116.457 305.194,118.791 302.5,120.5C 301.02,129.13 297.353,136.63 291.5,143C 291.833,143.333 292.167,143.667 292.5,144C 290.628,146.944 287.961,148.111 284.5,147.5C 284.5,148.833 284.5,150.167 284.5,151.5 Z"/></g>
<g><path style="opacity:1" fill="#b59c6b" d="M 322.5,131.5 C 317.976,138.026 313.309,144.526 308.5,151C 309.435,153.381 309.768,155.881 309.5,158.5C 311.167,158.5 312.833,158.5 314.5,158.5C 314.237,154.4 314.57,150.4 315.5,146.5C 316.338,146.842 316.672,147.508 316.5,148.5C 315.518,151.962 315.185,155.629 315.5,159.5C 309.824,159.666 304.157,159.499 298.5,159C 299.451,155.943 299.784,152.777 299.5,149.5C 300.833,149.5 302.167,149.5 303.5,149.5C 303.5,148.5 303.5,147.5 303.5,146.5C 308.777,147.396 310.61,145.396 309,140.5C 311.158,136.812 313.992,133.646 317.5,131C 317.043,130.586 316.709,130.086 316.5,129.5C 318.074,128.369 319.741,128.202 321.5,129C 320.572,129.388 319.905,130.055 319.5,131C 320.176,132.683 321.176,132.85 322.5,131.5 Z"/></g>
<g><path style="opacity:0.998" fill="#ae935c" d="M 329.5,130.5 C 329.833,130.5 330.167,130.5 330.5,130.5C 331.761,132.486 331.428,134.319 329.5,136C 327.42,136.789 325.586,137.956 324,139.5C 322.56,138.852 321.06,138.519 319.5,138.5C 319.5,139.5 319.5,140.5 319.5,141.5C 320.675,141.281 321.675,141.614 322.5,142.5C 321.271,143.281 319.938,143.781 318.5,144C 320.192,145.307 321.525,146.807 322.5,148.5C 320.598,147.632 318.765,146.632 317,145.5C 316.235,145.57 315.735,145.903 315.5,146.5C 314.57,150.4 314.237,154.4 314.5,158.5C 312.833,158.5 311.167,158.5 309.5,158.5C 309.768,155.881 309.435,153.381 308.5,151C 313.309,144.526 317.976,138.026 322.5,131.5C 324.717,130.631 327.05,130.298 329.5,130.5 Z"/></g>
<g><path style="opacity:1" fill="#a0844a" d="M 287.5,131.5 C 287.586,132.496 287.252,133.329 286.5,134C 285.234,134.309 284.067,134.809 283,135.5C 282.505,137.473 282.338,139.473 282.5,141.5C 281.5,141.5 280.5,141.5 279.5,141.5C 279.691,144.983 280.357,148.316 281.5,151.5C 277.966,151.361 275.299,152.694 273.5,155.5C 269.418,158.286 265.418,160.952 261.5,163.5C 259.517,163.843 258.183,163.176 257.5,161.5C 259.317,159.99 261.317,158.657 263.5,157.5C 264.397,154.436 266.23,152.103 269,150.5C 270.261,150.759 271.261,151.426 272,152.5C 272.692,151.975 273.192,151.308 273.5,150.5C 272.289,148.578 270.956,146.745 269.5,145C 271.329,143.225 273.829,141.391 277,139.5C 277.617,138.551 277.451,137.718 276.5,137C 277.167,136.333 277.833,135.667 278.5,135C 281.015,132.761 284.015,131.594 287.5,131.5 Z"/></g>
<g><path style="opacity:1" fill="#a28750" d="M 330.5,130.5 C 339.493,133.656 347.493,138.323 354.5,144.5C 354.92,146.094 355.586,147.594 356.5,149C 354.528,151.619 352.528,154.285 350.5,157C 351.833,157.333 353.167,157.667 354.5,158C 353.29,159.039 352.29,160.206 351.5,161.5C 341.769,157.627 332.102,153.294 322.5,148.5C 321.525,146.807 320.192,145.307 318.5,144C 319.938,143.781 321.271,143.281 322.5,142.5C 321.675,141.614 320.675,141.281 319.5,141.5C 319.5,140.5 319.5,139.5 319.5,138.5C 321.06,138.519 322.56,138.852 324,139.5C 325.586,137.956 327.42,136.789 329.5,136C 331.428,134.319 331.761,132.486 330.5,130.5 Z"/></g>
<g><path style="opacity:0.999" fill="#937848" d="M 293.5,126.5 C 293.833,126.5 294.167,126.5 294.5,126.5C 292.981,127.41 291.315,128.243 289.5,129C 290.167,129.333 290.833,129.667 291.5,130C 290.255,130.791 288.922,131.291 287.5,131.5C 284.015,131.594 281.015,132.761 278.5,135C 277.833,135.667 277.167,136.333 276.5,137C 277.451,137.718 277.617,138.551 277,139.5C 273.829,141.391 271.329,143.225 269.5,145C 270.956,146.745 272.289,148.578 273.5,150.5C 273.192,151.308 272.692,151.975 272,152.5C 271.261,151.426 270.261,150.759 269,150.5C 266.23,152.103 264.397,154.436 263.5,157.5C 261.317,158.657 259.317,159.99 257.5,161.5C 256.833,161.833 256.167,162.167 255.5,162.5C 256.588,160.417 257.588,158.251 258.5,156C 257.837,154.482 256.837,153.315 255.5,152.5C 255.5,151.5 255.5,150.5 255.5,149.5C 259.192,149.676 261.192,148.009 261.5,144.5C 266.396,143.273 269.729,140.273 271.5,135.5C 278.289,131.343 285.623,128.343 293.5,126.5 Z"/></g>
<g><path style="opacity:0.029" fill="#271e05" d="M 294.5,147.5 C 294.56,146.957 294.893,146.624 295.5,146.5C 296.493,151.12 296.827,155.786 296.5,160.5C 295.833,156.167 295.167,151.833 294.5,147.5 Z"/></g>
<g><path style="opacity:1" fill="#866f40" d="M 255.5,152.5 C 256.837,153.315 257.837,154.482 258.5,156C 257.588,158.251 256.588,160.417 255.5,162.5C 253.288,166.571 250.788,170.571 248,174.5C 247.667,176.167 247.333,177.833 247,179.5C 241.257,184.148 240.09,189.815 243.5,196.5C 240.815,193.81 238.482,190.81 236.5,187.5C 232.614,185.725 228.28,184.892 223.5,185C 223,184.5 222.5,184 222,183.5C 221.501,178.511 221.334,173.511 221.5,168.5C 226.179,168.334 230.845,168.501 235.5,169C 235.034,170.299 235.034,171.799 235.5,173.5C 239.383,171.725 243.383,170.891 247.5,171C 246.833,170.667 246.167,170.333 245.5,170C 248.312,167.924 249.812,165.09 250,161.5C 251.667,159.5 253.333,157.5 255,155.5C 255.483,154.552 255.649,153.552 255.5,152.5 Z"/></g>
<g><path style="opacity:1" fill="#897958" d="M 284.5,151.5 C 285.167,151.5 285.833,151.5 286.5,151.5C 278.604,156.615 270.27,160.949 261.5,164.5C 261.5,164.167 261.5,163.833 261.5,163.5C 265.418,160.952 269.418,158.286 273.5,155.5C 277.264,154.452 280.931,153.119 284.5,151.5 Z"/></g>
<g><path style="opacity:0.997" fill="#826c41" d="M 271.5,135.5 C 269.729,140.273 266.396,143.273 261.5,144.5C 261.192,148.009 259.192,149.676 255.5,149.5C 255.5,150.5 255.5,151.5 255.5,152.5C 255.649,153.552 255.483,154.552 255,155.5C 253.333,157.5 251.667,159.5 250,161.5C 249.812,165.09 248.312,167.924 245.5,170C 246.167,170.333 246.833,170.667 247.5,171C 243.383,170.891 239.383,171.725 235.5,173.5C 235.034,171.799 235.034,170.299 235.5,169C 230.845,168.501 226.179,168.334 221.5,168.5C 225.833,167.833 230.167,167.167 234.5,166.5C 235.833,166.5 236.5,165.833 236.5,164.5C 246.051,152.283 257.718,142.616 271.5,135.5 Z"/></g>
<g><path style="opacity:0.104" fill="#2e2617" d="M 236.5,164.5 C 236.5,165.833 235.833,166.5 234.5,166.5C 229.833,166.5 225.167,166.5 220.5,166.5C 225.732,165.79 231.065,165.123 236.5,164.5 Z"/></g>
<g><path style="opacity:0.055" fill="#332a11" d="M 350.5,164.5 C 351.766,165.09 353.099,165.59 354.5,166C 350.848,166.499 347.182,166.665 343.5,166.5C 343.167,166.5 342.833,166.5 342.5,166.5C 345.167,165.833 347.833,165.167 350.5,164.5 Z"/></g>
<g><path style="opacity:1" fill="#a7946e" d="M 315.5,146.5 C 315.735,145.903 316.235,145.57 317,145.5C 318.765,146.632 320.598,147.632 322.5,148.5C 332.102,153.294 341.769,157.627 351.5,161.5C 354.815,161.972 357.149,163.805 358.5,167C 357.386,168.57 356.053,169.903 354.5,171C 355.833,171.333 357.167,171.667 358.5,172C 356.13,173.902 353.464,174.569 350.5,174C 349.62,172.644 349.286,171.144 349.5,169.5C 350.043,169.44 350.376,169.107 350.5,168.5C 348.604,167.534 346.604,167.201 344.5,167.5C 344.5,173.167 344.5,178.833 344.5,184.5C 345.791,184.263 346.791,184.596 347.5,185.5C 346.167,185.5 344.833,185.5 343.5,185.5C 343.5,179.167 343.5,172.833 343.5,166.5C 347.182,166.665 350.848,166.499 354.5,166C 353.099,165.59 351.766,165.09 350.5,164.5C 339.211,159.772 328.378,154.105 318,147.5C 317.825,152.019 317.325,156.353 316.5,160.5C 316.5,156.5 316.5,152.5 316.5,148.5C 316.672,147.508 316.338,146.842 315.5,146.5 Z"/></g>
<g><path style="opacity:1" fill="#b8a070" d="M 354.5,144.5 C 360.391,147.719 365.391,152.052 369.5,157.5C 369.351,158.552 369.517,159.552 370,160.5C 371.749,162.667 373.583,164.667 375.5,166.5C 374.022,166.238 372.689,166.571 371.5,167.5C 370.907,169.382 370.24,171.215 369.5,173C 369.833,173.333 370.167,173.667 370.5,174C 368.655,175.423 366.655,176.59 364.5,177.5C 365.326,178.451 365.492,179.451 365,180.5C 362.591,182.071 360.758,184.071 359.5,186.5C 359.082,185.778 358.416,185.278 357.5,185C 359.181,183.055 359.848,181.055 359.5,179C 355.809,178.58 352.142,178.08 348.5,177.5C 348.261,179.467 348.594,181.301 349.5,183C 348.216,183.684 347.049,183.517 346,182.5C 345.501,177.845 345.334,173.179 345.5,168.5C 347.099,168.232 348.432,168.566 349.5,169.5C 349.286,171.144 349.62,172.644 350.5,174C 353.464,174.569 356.13,173.902 358.5,172C 357.167,171.667 355.833,171.333 354.5,171C 356.053,169.903 357.386,168.57 358.5,167C 357.149,163.805 354.815,161.972 351.5,161.5C 352.29,160.206 353.29,159.039 354.5,158C 353.167,157.667 351.833,157.333 350.5,157C 352.528,154.285 354.528,151.619 356.5,149C 355.586,147.594 354.92,146.094 354.5,144.5 Z"/></g>
<g><path style="opacity:0.542" fill="#443626" d="M 262.5,166.5 C 264.966,165.366 267.633,165.199 270.5,166C 270.957,166.414 271.291,166.914 271.5,167.5C 270.844,173.46 270.677,179.46 271,185.5C 268.894,187.291 266.394,187.958 263.5,187.5C 265.265,186.539 267.265,186.205 269.5,186.5C 269.824,179.646 269.491,172.979 268.5,166.5C 266.5,166.5 264.5,166.5 262.5,166.5 Z"/></g>
<g><path style="opacity:0.969" fill="#6e6045" d="M 220.5,166.5 C 225.167,166.5 229.833,166.5 234.5,166.5C 230.167,167.167 225.833,167.833 221.5,168.5C 221.334,173.511 221.501,178.511 222,183.5C 222.5,184 223,184.5 223.5,185C 228.28,184.892 232.614,185.725 236.5,187.5C 230.907,187.807 225.407,187.473 220,186.5C 219.179,179.654 219.346,172.987 220.5,166.5 Z"/></g>
<g><path style="opacity:1" fill="#957c48" d="M 257.5,161.5 C 258.183,163.176 259.517,163.843 261.5,163.5C 261.5,163.833 261.5,164.167 261.5,164.5C 259.969,165.925 260.302,166.591 262.5,166.5C 264.5,166.5 266.5,166.5 268.5,166.5C 268.663,168.857 268.497,171.19 268,173.5C 267.951,168.575 266.118,167.575 262.5,170.5C 261.975,172.988 261.142,175.321 260,177.5C 258.701,177.034 257.201,177.034 255.5,177.5C 255.174,179.661 254.174,181.494 252.5,183C 253.167,183.333 253.833,183.667 254.5,184C 250.125,185.701 248.458,188.867 249.5,193.5C 248.167,193.5 246.833,193.5 245.5,193.5C 245.517,195.565 245.85,197.565 246.5,199.5C 245.167,198.833 244.167,197.833 243.5,196.5C 240.09,189.815 241.257,184.148 247,179.5C 247.333,177.833 247.667,176.167 248,174.5C 250.788,170.571 253.288,166.571 255.5,162.5C 256.167,162.167 256.833,161.833 257.5,161.5 Z"/></g>
<g><path style="opacity:0.653" fill="#7a7061" d="M 342.5,166.5 C 342.833,166.5 343.167,166.5 343.5,166.5C 343.5,172.833 343.5,179.167 343.5,185.5C 344.833,185.5 346.167,185.5 347.5,185.5C 347.842,186.338 348.508,186.672 349.5,186.5C 347.393,187.468 345.059,187.802 342.5,187.5C 342.5,180.5 342.5,173.5 342.5,166.5 Z"/></g>
<g><path style="opacity:1" fill="#b19661" d="M 375.5,166.5 C 377.717,167.369 380.05,167.702 382.5,167.5C 381.737,168.268 380.737,168.768 379.5,169C 380.833,169.667 382.167,170.333 383.5,171C 381.382,173.142 378.882,174.642 376,175.5C 375.889,178.944 374.223,181.277 371,182.5C 369.325,184.591 368.825,186.758 369.5,189C 367.604,190.741 365.604,192.241 363.5,193.5C 363.189,192.522 362.522,191.855 361.5,191.5C 361.793,193.047 361.293,194.714 360,196.5C 358.887,195.289 357.72,195.289 356.5,196.5C 355.5,197.833 354.5,199.167 353.5,200.5C 352.817,200.137 352.15,199.804 351.5,199.5C 351.343,198.127 351.51,196.793 352,195.5C 354.637,193.524 356.803,191.191 358.5,188.5C 358.833,187.833 359.167,187.167 359.5,186.5C 360.758,184.071 362.591,182.071 365,180.5C 365.492,179.451 365.326,178.451 364.5,177.5C 366.655,176.59 368.655,175.423 370.5,174C 370.167,173.667 369.833,173.333 369.5,173C 370.24,171.215 370.907,169.382 371.5,167.5C 372.689,166.571 374.022,166.238 375.5,166.5 Z"/></g>
<g><path style="opacity:0.999" fill="#b29d71" d="M 349.5,169.5 C 348.432,168.566 347.099,168.232 345.5,168.5C 345.334,173.179 345.501,177.845 346,182.5C 347.049,183.517 348.216,183.684 349.5,183C 348.594,181.301 348.261,179.467 348.5,177.5C 352.142,178.08 355.809,178.58 359.5,179C 359.848,181.055 359.181,183.055 357.5,185C 358.416,185.278 359.082,185.778 359.5,186.5C 359.167,187.167 358.833,187.833 358.5,188.5C 356.857,188.48 355.524,189.147 354.5,190.5C 353.522,190.023 352.689,189.357 352,188.5C 348.902,190.592 346.069,193.092 343.5,196C 339.391,196.665 335.391,197.498 331.5,198.5C 338.299,194.933 344.966,191.099 351.5,187C 350.906,186.536 350.239,186.369 349.5,186.5C 348.508,186.672 347.842,186.338 347.5,185.5C 346.791,184.596 345.791,184.263 344.5,184.5C 344.5,178.833 344.5,173.167 344.5,167.5C 346.604,167.201 348.604,167.534 350.5,168.5C 350.376,169.107 350.043,169.44 349.5,169.5 Z"/></g>
<g><path style="opacity:0.999" fill="#a88c54" d="M 268.5,166.5 C 269.491,172.979 269.824,179.646 269.5,186.5C 267.265,186.205 265.265,186.539 263.5,187.5C 263.167,187.5 262.833,187.5 262.5,187.5C 260.58,186.06 258.913,186.393 257.5,188.5C 258.949,189.172 260.282,189.839 261.5,190.5C 260.618,192.384 259.118,193.717 257,194.5C 256.567,196.664 257.067,198.664 258.5,200.5C 258.315,201.584 257.982,202.584 257.5,203.5C 253.494,202.992 249.827,201.659 246.5,199.5C 245.85,197.565 245.517,195.565 245.5,193.5C 246.833,193.5 248.167,193.5 249.5,193.5C 248.458,188.867 250.125,185.701 254.5,184C 253.833,183.667 253.167,183.333 252.5,183C 254.174,181.494 255.174,179.661 255.5,177.5C 257.201,177.034 258.701,177.034 260,177.5C 261.142,175.321 261.975,172.988 262.5,170.5C 266.118,167.575 267.951,168.575 268,173.5C 268.497,171.19 268.663,168.857 268.5,166.5 Z"/></g>
<g><path style="opacity:0.992" fill="#80714e" d="M 369.5,157.5 C 372.334,159.502 374.667,162.002 376.5,165C 382.199,165.312 387.866,165.812 393.5,166.5C 393.5,173.5 393.5,180.5 393.5,187.5C 387.824,187.334 382.157,187.501 376.5,188C 374.074,192.037 371.074,195.537 367.5,198.5C 367.5,197.833 367.5,197.167 367.5,196.5C 370.898,193.129 372.898,189.129 373.5,184.5C 379.5,184.5 385.5,184.5 391.5,184.5C 391.666,179.489 391.499,174.489 391,169.5C 388.379,168.009 385.545,167.342 382.5,167.5C 380.05,167.702 377.717,167.369 375.5,166.5C 373.583,164.667 371.749,162.667 370,160.5C 369.517,159.552 369.351,158.552 369.5,157.5 Z"/></g>
<g><path style="opacity:0.992" fill="#857552" d="M 262.5,187.5 C 264.834,189.574 267.834,191.574 271.5,193.5C 267.879,193.292 264.546,192.292 261.5,190.5C 260.282,189.839 258.949,189.172 257.5,188.5C 258.913,186.393 260.58,186.06 262.5,187.5 Z"/></g>
<g><path style="opacity:1" fill="#9e834b" d="M 382.5,167.5 C 385.545,167.342 388.379,168.009 391,169.5C 391.499,174.489 391.666,179.489 391.5,184.5C 385.5,184.5 379.5,184.5 373.5,184.5C 372.898,189.129 370.898,193.129 367.5,196.5C 363.607,198.247 362.274,197.247 363.5,193.5C 365.604,192.241 367.604,190.741 369.5,189C 368.825,186.758 369.325,184.591 371,182.5C 374.223,181.277 375.889,178.944 376,175.5C 378.882,174.642 381.382,173.142 383.5,171C 382.167,170.333 380.833,169.667 379.5,169C 380.737,168.768 381.737,168.268 382.5,167.5 Z"/></g>
<g><path style="opacity:1" fill="#b49a68" d="M 261.5,190.5 C 264.546,192.292 267.879,193.292 271.5,193.5C 277.36,196.262 283.026,199.262 288.5,202.5C 288.631,203.239 288.464,203.906 288,204.5C 287.107,203.919 286.107,203.585 285,203.5C 282.772,204.364 280.605,205.364 278.5,206.5C 278.931,207.293 279.265,208.127 279.5,209C 277.832,210.675 276.165,212.342 274.5,214C 275.412,216.205 276.745,218.038 278.5,219.5C 274.852,218.678 271.852,216.845 269.5,214C 267.527,213.505 265.527,213.338 263.5,213.5C 262.288,209.455 259.621,206.955 255.5,206C 256.756,205.583 257.423,204.75 257.5,203.5C 257.982,202.584 258.315,201.584 258.5,200.5C 257.067,198.664 256.567,196.664 257,194.5C 259.118,193.717 260.618,192.384 261.5,190.5 Z"/></g>
<g><path style="opacity:1" fill="#b79d6c" d="M 358.5,188.5 C 356.803,191.191 354.637,193.524 352,195.5C 351.51,196.793 351.343,198.127 351.5,199.5C 349.465,205.034 345.632,208.701 340,210.5C 339.316,211.784 339.483,212.951 340.5,214C 342.545,214.49 344.545,214.323 346.5,213.5C 346.5,214.167 346.5,214.833 346.5,215.5C 346.167,215.5 345.833,215.5 345.5,215.5C 338.759,217.686 331.759,219.186 324.5,220C 325.641,220.741 325.641,221.575 324.5,222.5C 322.604,223.466 320.604,223.799 318.5,223.5C 319.398,222.842 320.398,222.176 321.5,221.5C 319.599,220.065 319.266,218.398 320.5,216.5C 321.912,215.194 323.579,214.36 325.5,214C 325.848,211.945 325.181,209.945 323.5,208C 325.402,206.349 327.402,206.016 329.5,207C 328.833,206 328.167,205 327.5,204C 330.215,203.125 331.548,201.292 331.5,198.5C 335.391,197.498 339.391,196.665 343.5,196C 346.069,193.092 348.902,190.592 352,188.5C 352.689,189.357 353.522,190.023 354.5,190.5C 355.524,189.147 356.857,188.48 358.5,188.5 Z"/></g>
<g><path style="opacity:0.933" fill="#847759" d="M 367.5,198.5 C 365.77,202.045 363.104,204.712 359.5,206.5C 360.5,202.167 363.167,199.5 367.5,198.5 Z"/></g>
<g><path style="opacity:1" fill="#b09561" d="M 363.5,193.5 C 362.274,197.247 363.607,198.247 367.5,196.5C 367.5,197.167 367.5,197.833 367.5,198.5C 363.167,199.5 360.5,202.167 359.5,206.5C 358.71,207.401 357.71,208.068 356.5,208.5C 354.473,208.338 352.473,208.505 350.5,209C 351.5,209.333 352.5,209.667 353.5,210C 350.826,210.67 348.493,211.837 346.5,213.5C 344.545,214.323 342.545,214.49 340.5,214C 339.483,212.951 339.316,211.784 340,210.5C 345.632,208.701 349.465,205.034 351.5,199.5C 352.15,199.804 352.817,200.137 353.5,200.5C 354.5,199.167 355.5,197.833 356.5,196.5C 357.72,195.289 358.887,195.289 360,196.5C 361.293,194.714 361.793,193.047 361.5,191.5C 362.522,191.855 363.189,192.522 363.5,193.5 Z"/></g>
<g><path style="opacity:1" fill="#9d814b" d="M 315.5,205.5 C 315.167,205.5 314.833,205.5 314.5,205.5C 312.553,206.473 310.553,207.473 308.5,208.5C 307.112,212.181 305.445,215.681 303.5,219C 303.957,219.414 304.291,219.914 304.5,220.5C 302.808,222.359 301.308,224.359 300,226.5C 299.405,227.899 299.572,229.232 300.5,230.5C 300.154,231.696 299.654,231.696 299,230.5C 298.063,234.167 298.563,237.501 300.5,240.5C 299.5,240.5 298.5,240.5 297.5,240.5C 296.899,233.711 297.566,227.211 299.5,221C 299.043,220.586 298.709,220.086 298.5,219.5C 300.435,218.932 301.768,217.765 302.5,216C 299.61,214.108 299.944,213.275 303.5,213.5C 303.5,210.833 303.5,208.167 303.5,205.5C 301.833,205.5 300.167,205.5 298.5,205.5C 298.5,201.5 298.5,197.5 298.5,193.5C 303.833,193.5 309.167,193.5 314.5,193.5C 315.021,197.481 315.354,201.481 315.5,205.5 Z"/></g>
<g><path style="opacity:1" fill="#947c4a" d="M 317.5,205.5 C 317.062,206.506 316.396,206.506 315.5,205.5C 315.354,201.481 315.021,197.481 314.5,193.5C 309.167,193.5 303.833,193.5 298.5,193.5C 298.5,197.5 298.5,201.5 298.5,205.5C 300.167,205.5 301.833,205.5 303.5,205.5C 303.5,208.167 303.5,210.833 303.5,213.5C 299.944,213.275 299.61,214.108 302.5,216C 301.768,217.765 300.435,218.932 298.5,219.5C 298.709,220.086 299.043,220.586 299.5,221C 297.566,227.211 296.899,233.711 297.5,240.5C 297.167,240.5 296.833,240.5 296.5,240.5C 296.5,235.833 296.5,231.167 296.5,226.5C 290.309,224.549 284.309,222.216 278.5,219.5C 276.745,218.038 275.412,216.205 274.5,214C 276.165,212.342 277.832,210.675 279.5,209C 279.265,208.127 278.931,207.293 278.5,206.5C 280.605,205.364 282.772,204.364 285,203.5C 286.107,203.585 287.107,203.919 288,204.5C 288.464,203.906 288.631,203.239 288.5,202.5C 290.84,203.086 293.007,204.086 295,205.5C 295.197,200.914 295.697,196.414 296.5,192C 303.167,191.333 309.833,191.333 316.5,192C 317.467,196.401 317.8,200.901 317.5,205.5 Z"/></g>
<g><path style="opacity:1" fill="#a1906d" d="M 246.5,199.5 C 249.827,201.659 253.494,202.992 257.5,203.5C 257.423,204.75 256.756,205.583 255.5,206C 259.621,206.955 262.288,209.455 263.5,213.5C 256.904,210.026 251.238,205.359 246.5,199.5 Z"/></g>
<g><path style="opacity:1" fill="#a88b52" d="M 314.5,205.5 C 315.453,207.61 317.119,208.777 319.5,209C 316.519,213.48 314.186,218.314 312.5,223.5C 311.833,223.833 311.167,224.167 310.5,224.5C 308.214,229.808 305.881,235.141 303.5,240.5C 302.5,240.5 301.5,240.5 300.5,240.5C 298.563,237.501 298.063,234.167 299,230.5C 299.654,231.696 300.154,231.696 300.5,230.5C 299.572,229.232 299.405,227.899 300,226.5C 301.308,224.359 302.808,222.359 304.5,220.5C 304.291,219.914 303.957,219.414 303.5,219C 305.445,215.681 307.112,212.181 308.5,208.5C 310.553,207.473 312.553,206.473 314.5,205.5 Z"/></g>
<g><path style="opacity:1" fill="#ad925c" d="M 331.5,198.5 C 331.548,201.292 330.215,203.125 327.5,204C 328.167,205 328.833,206 329.5,207C 327.402,206.016 325.402,206.349 323.5,208C 325.181,209.945 325.848,211.945 325.5,214C 323.579,214.36 321.912,215.194 320.5,216.5C 319.266,218.398 319.599,220.065 321.5,221.5C 320.398,222.176 319.398,222.842 318.5,223.5C 316.926,223.937 315.759,224.937 315,226.5C 314.501,231.155 314.334,235.821 314.5,240.5C 310.833,240.5 307.167,240.5 303.5,240.5C 305.881,235.141 308.214,229.808 310.5,224.5C 311.167,224.167 311.833,223.833 312.5,223.5C 314.186,218.314 316.519,213.48 319.5,209C 317.119,208.777 315.453,207.61 314.5,205.5C 314.833,205.5 315.167,205.5 315.5,205.5C 316.396,206.506 317.062,206.506 317.5,205.5C 321.883,202.642 326.55,200.308 331.5,198.5 Z"/></g>
<g><path style="opacity:0.886" fill="#887b5b" d="M 356.5,208.5 C 353.554,211.313 350.221,213.646 346.5,215.5C 346.5,214.833 346.5,214.167 346.5,213.5C 348.493,211.837 350.826,210.67 353.5,210C 352.5,209.667 351.5,209.333 350.5,209C 352.473,208.505 354.473,208.338 356.5,208.5 Z"/></g>
<g><path style="opacity:1" fill="#a99b7d" d="M 263.5,213.5 C 265.527,213.338 267.527,213.505 269.5,214C 271.852,216.845 274.852,218.678 278.5,219.5C 284.309,222.216 290.309,224.549 296.5,226.5C 295.167,226.5 293.833,226.5 292.5,226.5C 281.708,224.254 272.042,219.921 263.5,213.5 Z"/></g>
<g><path style="opacity:0.992" fill="#a4936f" d="M 345.5,215.5 C 342.898,217.81 339.898,219.643 336.5,221C 330.276,223.305 323.943,225.138 317.5,226.5C 316.513,231.305 316.179,236.305 316.5,241.5C 309.833,241.5 303.167,241.5 296.5,241.5C 296.5,241.167 296.5,240.833 296.5,240.5C 296.833,240.5 297.167,240.5 297.5,240.5C 298.5,240.5 299.5,240.5 300.5,240.5C 301.5,240.5 302.5,240.5 303.5,240.5C 307.167,240.5 310.833,240.5 314.5,240.5C 314.334,235.821 314.501,231.155 315,226.5C 315.759,224.937 316.926,223.937 318.5,223.5C 320.604,223.799 322.604,223.466 324.5,222.5C 325.641,221.575 325.641,220.741 324.5,220C 331.759,219.186 338.759,217.686 345.5,215.5 Z"/></g>
<g><path style="opacity:0.035" fill="#30200b" d="M 292.5,226.5 C 293.833,226.5 295.167,226.5 296.5,226.5C 296.5,231.167 296.5,235.833 296.5,240.5C 295.515,236.366 295.182,232.032 295.5,227.5C 294.209,227.737 293.209,227.404 292.5,226.5 Z"/></g>
<g><path style="opacity:0.716" fill="#60523d" d="M 317.5,226.5 C 317.828,231.875 317.495,237.208 316.5,242.5C 309.639,243.893 302.972,243.559 296.5,241.5C 303.167,241.5 309.833,241.5 316.5,241.5C 316.179,236.305 316.513,231.305 317.5,226.5 Z"/></g>
</svg>
